<svg xmlns="http://www.w3.org/2000/svg" xmlns:xlink="http://www.w3.org/1999/xlink" viewBox="0 0 3557.05 1621.92"><defs><style>.cls-1{fill:#57c5cc;}.cls-2{fill:url(#linear-gradient);}.cls-3{fill:#56516e;}.cls-4{fill:#d1e4f6;}.cls-5{fill:#f79d75;}.cls-6{fill:#ec8b6c;}.cls-7{fill:#606060;}.cls-8{fill:#fff;}.cls-9{fill:#b3b3b3;}.cls-10{fill:#a9d4e8;}.cls-11{fill:#0080b7;}.cls-12{fill:url(#linear-gradient-2);}.cls-13{fill:url(#radial-gradient);}.cls-14{fill:#fbcbc8;}.cls-15{fill:#f7c0b5;}.cls-16{fill:#534f6a;}.cls-17{fill:#4c4862;}.cls-18{fill:#bcddf4;}.cls-19{fill:#a1d4f3;}</style><linearGradient id="linear-gradient" x1="1795.85" y1="890.54" x2="2163.1" y2="890.54" gradientUnits="userSpaceOnUse"><stop offset="0" stop-color="#b7deff"/><stop offset="0.21" stop-color="#bce0ff"/><stop offset="0.47" stop-color="#cce8ff"/><stop offset="0.76" stop-color="#e5f3ff"/><stop offset="1" stop-color="#fff"/></linearGradient><linearGradient id="linear-gradient-2" x1="1669.81" y1="545.02" x2="1678" y2="545.02" gradientUnits="userSpaceOnUse"><stop offset="0" stop-color="#b7deff"/><stop offset="1" stop-color="#fff"/></linearGradient><radialGradient id="radial-gradient" cx="4019.73" cy="2057.15" r="319.23" gradientTransform="translate(-2466.56 -101.44) rotate(-21.83)" gradientUnits="userSpaceOnUse"><stop offset="0" stop-color="#745166"/><stop offset="1" stop-color="#575d74"/></radialGradient></defs><g id="Layer_2" data-name="Layer 2"><path class="cls-1" d="M1069.15,1319.77V1155.39l310.72-435h212.49v429h78.18v170.39h-78.18v120.28H1393.9V1319.77Zm339.78-373.86-141.32,203.47h141.32Z" transform="translate(-233.31 -254.6)"/><path class="cls-1" d="M1747.7,1077.21q0-165.37,70.66-262.1t220-96.72q149.34,0,220.5,97.22t71.17,261.6q0,165.39-71.17,262.61T2038.37,1437q-149.36,0-220-97.22T1747.7,1077.21Zm387.89,0q0-82.17-19.54-127.29t-77.68-45.1q-58.14,0-77.68,45.1t-19.55,127.29q0,83.2,19.55,128.3t77.68,45.1q58.11,0,77.68-45.1T2135.59,1077.21Z" transform="translate(-233.31 -254.6)"/><path class="cls-1" d="M2413.23,1319.77V1155.39l310.71-435h212.49v429h78.18v170.39h-78.18v120.28H2738V1319.77ZM2753,945.91l-141.33,203.47H2753Z" transform="translate(-233.31 -254.6)"/><path class="cls-2" d="M1869.12,801.08s1.94,23.13,9.94,69.26c0,0,10.78,48.68,7.43,109S1870.08,1096,1870.08,1096s11.29,7.42,32.7,15.09c14.65,5.26,35.67,13.74,66,14.86,99.13,3.65,98.51.47,118.86-21.86,16.41-18,51.14-37.92,47.57-81.2a815,815,0,0,1-.4-127.13c-.71-62,8.23-84.7,8.83-122.19h19.51c-.57-3.07,3.2-84.39-39.71-101.41-43.61-17.3-95.34-18.29-95.34-18.29-62.71,2.92-110.77,4.51-149.78,11.19-28.39,6.37-60.84,27.07-66.69,52.5-6.45,28-20.81,124.26-13.89,160.72,0,0,11,43.16,25.33,42.41s192.71-59.95,192.71-59.95l4.38-36.12-154.25,20.82Z" transform="translate(-233.31 -254.6)"/><path class="cls-3" d="M2138.3,1043.75s-11.34,18-41.35,28.84c-58.61,21.16-195.53,9.41-219.7-13.7,0,0-4.78,14.47-5.73,23.87-3.39,33.39-9.93,147.64,128.15,163.27l16.63-60.77,23.73-.87,33.59,66.5s69.93-28.52,86-98.69Z" transform="translate(-233.31 -254.6)"/><path class="cls-4" d="M2152.83,699.23c2.26,14.85,10.27,74.33,10.27,74.33h-21.32a182.34,182.34,0,0,0,.62-21.18c-1.12-49.4-4-70.8-19-80.23C2123.39,672.15,2149.63,678.29,2152.83,699.23Z" transform="translate(-233.31 -254.6)"/><polygon class="cls-5" points="1929.79 518.96 1942.69 658.41 1941.18 672.2 1897.4 624.49 1908.47 518.96 1929.79 518.96"/><path class="cls-5" d="M2130.71,879.1l-168.36,73.26-21.19-2.51L1930.63,953l-8.3,9.61c-1,1.09-.75,3.48,2.54,3.67l4-.85,17.29-4.79-18.63,6.21-23.66,2.94v7.39L1917,991l14.66,8.78s14.64,1.1,19.49-.09c7.52-1.86,26.08-15,26.08-15L2137.7,945a54,54,0,0,0,13.14-5.16l23.65-13.05s10.15-26.69-18.36-42C2150.39,881.7,2130.71,879.1,2130.71,879.1Z" transform="translate(-233.31 -254.6)"/><path class="cls-6" d="M2141.78,773.56l14.35,111.23c-6.86-4-11.4-5.58-18.67-6.21a30.41,30.41,0,0,0-6.75.52Z" transform="translate(-233.31 -254.6)"/><polyline class="cls-7" points="375.7 120.89 1.92 120.89 1.92 38.43 375.7 38.43 375.7 120.89"/><path class="cls-8" d="M253.23,360.23H279.8v15.26H233.31V293.11h19.92Z" transform="translate(-233.31 -254.6)"/><path class="cls-8" d="M349.31,297.25a39.44,39.44,0,0,1,15,15,45.8,45.8,0,0,1-.06,43.52,39.75,39.75,0,0,1-15,15.09,43.53,43.53,0,0,1-42.07,0,39.75,39.75,0,0,1-15-15.09,45.58,45.58,0,0,1,0-43.52,39.87,39.87,0,0,1,15-15,43.76,43.76,0,0,1,42.19,0ZM312.6,316.71q-5.76,6.35-5.77,17.3t5.77,17.24q5.77,6.42,15.56,6.41t15.49-6.41q5.84-6.4,5.83-17.24t-5.77-17.25q-5.76-6.4-15.55-6.4T312.6,316.71Z" transform="translate(-233.31 -254.6)"/><path class="cls-8" d="M445,299.87a32.24,32.24,0,0,1,12.46,20.51H436.4a16.16,16.16,0,0,0-6.41-7.05,19.55,19.55,0,0,0-10.37-2.62q-9.44,0-15.14,6.34t-5.71,17.19q0,11.77,6,18.06t17.07,6.29a20.58,20.58,0,0,0,12.47-3.9,20.82,20.82,0,0,0,7.57-11.13H416.71V329.23h41.83v19.69a40,40,0,0,1-7.46,13.4,38.36,38.36,0,0,1-13.1,10,41.59,41.59,0,0,1-18.24,3.84q-12.47,0-21.79-5.3A36.39,36.39,0,0,1,383.56,356a49.36,49.36,0,0,1,0-43.58,36.42,36.42,0,0,1,14.33-14.85,42.72,42.72,0,0,1,21.62-5.31Q435,292.29,445,299.87Z" transform="translate(-233.31 -254.6)"/><path class="cls-8" d="M530,297.25a39.44,39.44,0,0,1,15,15,45.72,45.72,0,0,1-.06,43.52,39.75,39.75,0,0,1-15,15.09,43.51,43.51,0,0,1-42.06,0,39.7,39.7,0,0,1-15-15.09,45.58,45.58,0,0,1,0-43.52,39.83,39.83,0,0,1,15-15,43.74,43.74,0,0,1,42.18,0Zm-36.71,19.46q-5.76,6.35-5.77,17.3t5.77,17.24q5.78,6.42,15.56,6.41t15.5-6.41q5.82-6.4,5.82-17.24t-5.77-17.25q-5.76-6.4-15.55-6.4T493.32,316.71Z" transform="translate(-233.31 -254.6)"/><path class="cls-8" d="M1850.31,1861.58a8.18,8.18,0,0,1,1.81,5.27,8.51,8.51,0,0,1-2.92,6.87q-2.92,2.46-8.39,2.46h-15.92V1842h15.53q5.22,0,8.08,2.27a7.82,7.82,0,0,1,2.85,6.48,8,8,0,0,1-1.64,5.15,7.63,7.63,0,0,1-4.31,2.69A8.54,8.54,0,0,1,1850.31,1861.58Zm-17.15-5.61h5.42q4.31,0,4.31-3.68t-4.41-3.67h-5.32Zm10.5,9.72a3.58,3.58,0,0,0-1.21-2.88,5.13,5.13,0,0,0-3.43-1h-5.86v7.69h5.91Q1843.66,1869.46,1843.66,1865.69Z" transform="translate(-233.31 -254.6)"/><path class="cls-8" d="M1881.51,1843.7a16.49,16.49,0,0,1,6.21,6.25,19,19,0,0,1,0,18.06,16.46,16.46,0,0,1-6.24,6.26,18.06,18.06,0,0,1-17.46,0,16.46,16.46,0,0,1-6.24-6.26,17.91,17.91,0,0,1-2.3-9,17.71,17.71,0,0,1,2.3-9,16.57,16.57,0,0,1,6.24-6.25,18.23,18.23,0,0,1,17.51,0Zm-15.24,8.08a11.95,11.95,0,0,0,0,14.34,9.14,9.14,0,0,0,12.89,0,11.83,11.83,0,0,0,0-14.31,8.21,8.21,0,0,0-6.45-2.66A8.32,8.32,0,0,0,1866.27,1851.78Z" transform="translate(-233.31 -254.6)"/><path class="cls-8" d="M1919.67,1843.7a16.49,16.49,0,0,1,6.21,6.25,19,19,0,0,1,0,18.06,16.6,16.6,0,0,1-6.24,6.26,18.06,18.06,0,0,1-17.46,0,16.46,16.46,0,0,1-6.24-6.26,17.91,17.91,0,0,1-2.3-9,17.71,17.71,0,0,1,2.3-9,16.57,16.57,0,0,1,6.24-6.25,18.23,18.23,0,0,1,17.51,0Zm-15.24,8.08a11.95,11.95,0,0,0,0,14.34,9.14,9.14,0,0,0,12.89,0,11.83,11.83,0,0,0,0-14.31,8.21,8.21,0,0,0-6.45-2.66A8.32,8.32,0,0,0,1904.43,1851.78Z" transform="translate(-233.31 -254.6)"/><path class="cls-8" d="M1948.9,1858.72l13.79,17.46h-10l-11.6-15.33v15.33h-8.27V1842h8.27v15l11.7-15h9.92Z" transform="translate(-233.31 -254.6)"/><path class="cls-8" d="M2010.08,1842v6.58h-9.28v27.61h-8.32v-27.61h-9.19V1842Z" transform="translate(-233.31 -254.6)"/><path class="cls-8" d="M2038.59,1843.7a16.45,16.45,0,0,1,6.22,6.25,19,19,0,0,1,0,18.06,16.46,16.46,0,0,1-6.24,6.26,18.06,18.06,0,0,1-17.46,0,16.5,16.5,0,0,1-6.23-6.26,17.81,17.81,0,0,1-2.3-9,17.61,17.61,0,0,1,2.3-9,16.61,16.61,0,0,1,6.23-6.25,18.23,18.23,0,0,1,17.51,0Zm-15.23,8.08a11.91,11.91,0,0,0,0,14.34,9.14,9.14,0,0,0,12.89,0,11.83,11.83,0,0,0,0-14.31,9.2,9.2,0,0,0-12.91,0Z" transform="translate(-233.31 -254.6)"/><path class="cls-8" d="M2080.33,1867.94a15.09,15.09,0,0,1-6.19,6.07,19.74,19.74,0,0,1-9.5,2.17h-12.92V1842h12.92a20.1,20.1,0,0,1,9.53,2.13,14.73,14.73,0,0,1,6.16,6,17.9,17.9,0,0,1,2.15,8.9A18.09,18.09,0,0,1,2080.33,1867.94Zm-8.9-1.72a11,11,0,0,0,0-14.41c-1.79-1.71-4.29-2.57-7.52-2.57H2060v19.54h3.92C2067.14,1868.78,2069.64,1867.93,2071.43,1866.22Z" transform="translate(-233.31 -254.6)"/><path class="cls-8" d="M2108.36,1870h-12.82l-2.13,6.23h-8.7l12.53-34h9.52l12.53,34h-8.8Zm-2.13-6.29-4.25-12.58-4.31,12.58Z" transform="translate(-233.31 -254.6)"/><path class="cls-8" d="M2152,1842l-11.85,22.83v11.36h-8.31v-11.36L2120,1842h9.48l6.57,13.93,6.58-13.93Z" transform="translate(-233.31 -254.6)"/><polyline class="cls-9" points="375.7 120.89 1.92 120.89 1.92 38.43 375.7 38.43 375.7 120.89"/><rect class="cls-7" x="3382.26" y="55.35" width="174.78" height="11.65"/><rect class="cls-7" x="3411.39" y="27.67" width="145.65" height="11.65"/><rect class="cls-7" x="3411.39" width="145.65" height="11.65"/><circle class="cls-10" cx="3757.37" cy="1037.01" r="25" transform="translate(1651.53 4201.01) rotate(-76.72)"/><circle class="cls-10" cx="3757.37" cy="922.43" r="25" transform="translate(214.95 2672.43) rotate(-45)"/><circle class="cls-11" cx="3524.06" cy="553.24" r="25"/><circle class="cls-10" cx="3757.37" cy="693.26" r="25" transform="translate(1986.09 3936.24) rotate(-76.72)"/><path class="cls-8" d="M1902.54,1844.79a13.41,13.41,0,0,1,5.18,8.52H1899a6.78,6.78,0,0,0-2.66-2.93,8.21,8.21,0,0,0-4.31-1.09,8,8,0,0,0-6.29,2.64,10.27,10.27,0,0,0-2.37,7.13q0,4.89,2.49,7.5c1.66,1.74,4,2.61,7.09,2.61a8.39,8.39,0,0,0,8.32-6.24h-10.45v-6h17.36v8.18a16.55,16.55,0,0,1-3.09,5.56,16,16,0,0,1-5.44,4.16,17.29,17.29,0,0,1-7.57,1.59,18,18,0,0,1-9-2.2,15,15,0,0,1-6-6.16,20.53,20.53,0,0,1,0-18.09,15.12,15.12,0,0,1,6-6.17,17.8,17.8,0,0,1,9-2.2A17.1,17.1,0,0,1,1902.54,1844.79Z" transform="translate(-233.31 -254.6)"/><path class="cls-8" d="M1937.83,1843.7A16.42,16.42,0,0,1,1944,1850a19,19,0,0,1,0,18.06,16.46,16.46,0,0,1-6.24,6.26,18.06,18.06,0,0,1-17.46,0,16.46,16.46,0,0,1-6.24-6.26,17.91,17.91,0,0,1-2.3-9,17.71,17.71,0,0,1,2.3-9,16.57,16.57,0,0,1,6.24-6.25,18.23,18.23,0,0,1,17.51,0Zm-15.24,8.08a11.95,11.95,0,0,0,0,14.34,9.14,9.14,0,0,0,12.89,0,11.85,11.85,0,0,0,0-14.31,9.21,9.21,0,0,0-12.92,0Z" transform="translate(-233.31 -254.6)"/><path class="cls-8" d="M1990.18,1842v34.19h-8.32v-14.26h-13v14.26h-8.27V1842h8.27v13.25h13V1842Z" transform="translate(-233.31 -254.6)"/><path class="cls-8" d="M2020.92,1843.7a16.42,16.42,0,0,1,6.21,6.25,18.95,18.95,0,0,1,0,18.06,16.46,16.46,0,0,1-6.24,6.26,18.06,18.06,0,0,1-17.46,0,16.46,16.46,0,0,1-6.24-6.26,17.91,17.91,0,0,1-2.3-9,17.71,17.71,0,0,1,2.3-9,16.57,16.57,0,0,1,6.24-6.25,18.23,18.23,0,0,1,17.51,0Zm-15.24,8.08a11.95,11.95,0,0,0,0,14.34,9.14,9.14,0,0,0,12.89,0,11.85,11.85,0,0,0,0-14.31,9.21,9.21,0,0,0-12.92,0Z" transform="translate(-233.31 -254.6)"/><path class="cls-8" d="M2072.5,1842.23v34h-8.27V1855l-7.35,21.23h-7.16l-7.4-21.28v21.28h-8.27v-34h10.11l9.23,23.65,9.05-23.65Z" transform="translate(-233.31 -254.6)"/><path class="cls-8" d="M2086.48,1848.57v7.15H2098V1862h-11.55v7.6h13v6.62H2078.2V1842h21.29v6.58Z" transform="translate(-233.31 -254.6)"/><line class="cls-12" x1="1678" y1="589.25" x2="1669.81" y2="500.8"/><path class="cls-5" d="M2005.66,634.89c-4.15-19.39,12.29-31.68,29.14-34.81v0h0c10.26-1.91,20.31-8.69,27.06-12.35,15.61-8.44,7.33-50.36,8.11-61.15s29.3-10.53,20.94-22c-9.78-7.25-16.54-13.57-21.14-19.31C2052.58,464,2064,450.34,2057,426.58a147.35,147.35,0,0,0-23.45-47.16c-.84-1.06-1.36-1.7-1.5-1.87.08.18.47.74,1.05,1.65,5.08,7.95,24.89,41.41.43,47.16C1912,454.94,1911.31,549.65,1911.31,549.65s32.2,27,32.77,70.17a81.87,81.87,0,0,1-4.51,27.47c-9.28,6.76-24.65,12-28.26,13.4,0,0,18,45.47,79.39,45.56,70.68.1,54.12-51.34,54.12-51.34s-20.48-3.49-32.5-6.52C2012.32,648.39,2006.45,638.57,2005.66,634.89Z" transform="translate(-233.31 -254.6)"/><path class="cls-6" d="M1971,583.71s4,57.56,41.36,64.68c-.18-.62-.57-.84-1.25-2l-4-7.71c-1-1.92-2.35-6.19-1.09-13.16,3.42-19,13.59-19.27,20.68-18.77l5.39-10.73C2029.15,596.28,1994.46,594.48,1971,583.71Z" transform="translate(-233.31 -254.6)"/><path class="cls-13" d="M2007.75,317.67s19.9,44.6-44.25,51.84c-51.78,5.84-96.91,39.31-105.14,96.35S1895.32,582,1944,621c0,0-.59-5.47,9.5-47.73s-7.19-12.55-18.15-39.75c-10.73-26.61,10.59-33.93,17.2-20.73,1.52,3,5,16.77,6.23,22.55.84,4,1.22,10,1.33,16.79a53.9,53.9,0,0,0,46.08,52.53,226.36,226.36,0,0,0,35,2.36c4,0,8.54-.21,12.94-.43a18.45,18.45,0,0,0,17.56-18.44l-.48-39.18s-69.51,13.45-87.48.78c-4.8-3.38-7.68-22.19-7.68-22.19s-5.43-40.11,3.73-63.18c12-30.33,117.08-35.55,70.87-110.84C2043.41,341.61,2034.12,330.06,2007.75,317.67Z" transform="translate(-233.31 -254.6)"/><path class="cls-5" d="M2065.36,576.2c0,5.86-6,1.4-13.3,1.4s-13.3,4.46-13.3-1.4,6-10.61,13.3-10.61S2065.36,570.34,2065.36,576.2Z" transform="translate(-233.31 -254.6)"/><path class="cls-14" d="M1873.35,445.07l33,2.09a7.68,7.68,0,0,1,7.2,7.67h0a7.66,7.66,0,0,1-7.56,7.69c-9.34.11-25.17,0-34.65-2a7.72,7.72,0,0,1-6.16-8.21v-.18A7.69,7.69,0,0,1,1873.35,445.07Z" transform="translate(-233.31 -254.6)"/><path class="cls-15" d="M1895.79,437.32c-1.87,6.74-3.38,17.62-1.43,33.58a6.88,6.88,0,0,1-6.79,7.75h-.63a6.84,6.84,0,0,1-6.73-5.45,80.17,80.17,0,0,1,2.4-39.8,7,7,0,0,1,6.6-4.91h0A6.89,6.89,0,0,1,1895.79,437.32Z" transform="translate(-233.31 -254.6)"/><path class="cls-8" d="M2052.34,801.81l-42,10.67c8,30.47,1.06,55.55,1.06,55.55l54.85-17.3a25.45,25.45,0,0,0,17.29-29.31h0A25.44,25.44,0,0,0,2052.34,801.81Z" transform="translate(-233.31 -254.6)"/><path class="cls-16" d="M2040,1184.39s25.09-2.3,50.18-39.9l-16.59,106.4Z" transform="translate(-233.31 -254.6)"/><polygon class="cls-16" points="1782.99 930.66 1753.8 922.27 1766.36 991.43 1782.99 930.66"/><path class="cls-17" d="M1877.25,1058.89l52.16,165.28s-55.94-28.87-60.6-100.79C1867.87,1108.83,1866.13,1090.88,1877.25,1058.89Z" transform="translate(-233.31 -254.6)"/><path class="cls-16" d="M2150.72,1112.88s8.9,54.74-33.71,108.71c0,0,35.47-27.62,42.58-69.39Z" transform="translate(-233.31 -254.6)"/><path class="cls-18" d="M2047.2,803.11S2037.77,850.64,2015,868l18.36-61.41Z" transform="translate(-233.31 -254.6)"/><path class="cls-4" d="M2079.94,812.59s16.62,34.67-62,53.47c0,0,39.69-10.88,52-16.84C2073.48,847.52,2094,836,2079.94,812.59Z" transform="translate(-233.31 -254.6)"/><path class="cls-19" d="M1869.12,801.08s41-9.23,94.44-54.39S1874,839.33,1874,839.33Z" transform="translate(-233.31 -254.6)"/><path class="cls-19" d="M1868.3,811.44s-32.13,30.68-73,46.61l71.89-29.68Z" transform="translate(-233.31 -254.6)"/><path class="cls-8" d="M2029.86,829.77C2027,845,2023,857.69,2018,866.06c-11,4.26-117.11,37.68-169.48,54.13-32.29,10.13-48.43-3.56-51.09-29.65-.26-2.29-1.23-9.7-1.87-17.1-.65-7.61-1-15.24.32-17.3,191.24-59.38,216.46-207.76,216.46-207.76l15.73,5.48C2038.35,696.54,2039.9,778,2029.86,829.77Z" transform="translate(-233.31 -254.6)"/><path class="cls-4" d="M2033.39,806.86v0Z" transform="translate(-233.31 -254.6)"/><path class="cls-4" d="M2018,866.06c-11,4.26-117.11,37.68-169.48,54.13-32.29,10.13-48.43-3.56-51.09-29.65-.26-2.29-1.23-9.7-1.87-17.1,11.47,37.4,38.28,40.79,204.59-14.17,32.93-10.81,33.28-49.25,33.25-52.41C2033.39,806.86,2037.54,852.49,2018,866.06Z" transform="translate(-233.31 -254.6)"/><path class="cls-19" d="M1887.13,955.71s11.49,115.54,94.43,127.1c0,0-74.63-1.33-104.31-23.92,0,0,4.66-34.9,5.75-46.25C1884.38,998.19,1887.13,955.71,1887.13,955.71Z" transform="translate(-233.31 -254.6)"/></g></svg>