<svg xmlns="http://www.w3.org/2000/svg" width="79.557" height="57.882" viewBox="0 0 79.557 57.882">
    <g id="noun_Cardiology_1744691" transform="translate(0 0.005)">
        <g id="Layer_2" data-name="Layer 2" transform="translate(0 -0.005)">
            <g id="Layer_1" data-name="Layer 1" transform="translate(0 0)">
                <path id="Path_64" data-name="Path 64"
                    d="M38.188,57.877l-1.726-1.448c-.9-.74-21.974-18.449-27.368-29.778a16.444,16.444,0,0,1-1.5-6.365A20.406,20.406,0,0,1,17.145,2.521C23.224-1.163,30.782-.8,38.451,3.547,46.1-.8,53.678-1.163,59.788,2.481a20.43,20.43,0,0,1,9.547,17.757,16.087,16.087,0,0,1-1.5,6.412C62.406,38,40.853,55.689,39.939,56.485ZM26.255,5.449A12.172,12.172,0,0,0,19.89,7.167a15,15,0,0,0-6.866,12.9,10.471,10.471,0,0,0,.088,1.13,10.159,10.159,0,0,0,.883,3.111c4.049,8.513,19.094,21.99,24.2,26.453,5.227-4.439,20.6-17.948,24.663-26.453a10.676,10.676,0,0,0,.979-4.24,15.02,15.02,0,0,0-6.85-12.9C52.58,4.534,47.123,4.924,41.164,8.281l-2.713,2.777L35.762,8.289a19.547,19.547,0,0,0-9.507-2.84Z"
                    transform="translate(-1.552 0.005)" />
                <path id="Path_65" data-name="Path 65"
                    d="M29.19,39.18,25.769,27.955l-2.021,4.463H1.949a1.949,1.949,0,1,1,0-3.9H21.234l5.251-11.6,3.866,12.729,7.041-11.782L41.37,29.172l6.786-8.751,5.4,6.07h24.05a1.949,1.949,0,0,1,0,3.9H51.776l-3.445-3.859-8.29,10.7-3.6-10.215Z"
                    transform="translate(0 -3.455)" />
            </g>
        </g>
    </g>
</svg>