<svg xmlns="http://www.w3.org/2000/svg" width="48.362" height="58.163" viewBox="0 0 48.362 75.163">
    <g id="noun_knee_joint_2596276" data-name="noun_knee joint_2596276"
        transform="translate(-24.199 -12.537)">
        <path id="Path_72" data-name="Path 72"
            d="M51.5,87.7H37.1a2.553,2.553,0,0,1-2.4-1.9c-.2-.9-.4-2.1-.6-3.5-.8-4.7-2-11.9-4.9-16-.4-.5-.8-1.1-1.2-1.6a19.145,19.145,0,0,1-2.5-3.6c-.6-1.2-2.6-5.5,0-8.2,3-3.2,6.7-.1,7.8.9l.4.3a19.761,19.761,0,0,0,3.5,2.6c3.4,1.8,7,1.8,11.1,0,.2-.1.5-.2.7-.3a11.717,11.717,0,0,1,3.6-1.2,3.888,3.888,0,0,1,1.9.3A3.509,3.509,0,0,1,56,57.3a5.7,5.7,0,0,1-.3,3.9,28.8,28.8,0,0,1-1.3,3.1l-.3.7a9.492,9.492,0,0,0-.9,2.5c-.9,4.3-.1,14.7.7,17.1a2.817,2.817,0,0,1-.3,2.2A2.723,2.723,0,0,1,51.5,87.7ZM39.2,82.9h9.4c-.7-4.7-1-12.4-.2-16.4A15.943,15.943,0,0,1,49.7,63l.3-.6c.2-.4.3-.8.5-1.2-.1,0-.1.1-.2.1-5.4,2.4-10.6,2.3-15.3-.2a24.907,24.907,0,0,1-4.4-3.2l-.4-.4a5.223,5.223,0,0,0-1.1-.8,10.572,10.572,0,0,0,.7,2.2,13.109,13.109,0,0,0,2,2.8c.5.6.9,1.2,1.4,1.8,3.6,5.1,4.9,12.9,5.7,18C39,82,39.1,82.5,39.2,82.9Zm12.1-24Z" />
        <path id="Path_73" data-name="Path 73"
            d="M43.4,54.1a12.078,12.078,0,0,1-7.9-21.2,13.221,13.221,0,0,1,5-2.6,9.459,9.459,0,0,0,3.1-2.1l.1-.1a27.592,27.592,0,0,0,5-5.9,33.949,33.949,0,0,0,3.2-5.6c.3-.7.8-1.6,1.1-2.5a2.443,2.443,0,0,1,3.1-1.4L71,18.3a2.293,2.293,0,0,1,1.5,1.8,2.328,2.328,0,0,1-.8,2.3c-.5.5-1.1,1-1.6,1.5-1.6,1.6-3.2,3.3-4.7,5.1a65.45,65.45,0,0,0-5.8,7.8,51.292,51.292,0,0,0-4.9,9.6,12.347,12.347,0,0,1-6.3,6.8A14.259,14.259,0,0,1,43.4,54.1Zm13.3-36-.3.6a52.992,52.992,0,0,1-3.6,6.2,33.563,33.563,0,0,1-5.9,6.8l-.1.1c-1.3,1.1-2.9,2.6-5,3.1a8.239,8.239,0,0,0-3.1,1.6,7.239,7.239,0,0,0,2.2,12.2,7,7,0,0,0,5.5-.2,7.106,7.106,0,0,0,3.8-4A55.18,55.18,0,0,1,55.6,34a89.346,89.346,0,0,1,6.2-8.3c1.3-1.5,2.6-2.9,3.9-4.3Z" />
    </g>
</svg>